<?xml version="1.0" encoding="utf-8"?>
<!-- Generator: Adobe Illustrator 20.1.0, SVG Export Plug-In . SVG Version: 6.00 Build 0)  -->
<svg version="1.1" id="Layer_1" xmlns="http://www.w3.org/2000/svg" xmlns:xlink="http://www.w3.org/1999/xlink" x="0px" y="0px"
	 viewBox="0 0 655.2 107.6" style="enable-background:new 0 0 655.2 107.6;" xml:space="preserve">
<style type="text/css">
	.st0{fill:#90AD3D;}
	.st1{fill:#8FAD3D;}
	.st2{fill:#E5E8D2;}
	.st3{fill:#E6EAD5;}
	.st4{fill:#BBC987;}
	.st5{fill:#A2B858;}
	.st6{fill:#D7DEBB;}
</style>
<g>
	<g>
		<g>
			<path class="st0" d="M46.2,79.5c7,0.9,13.8,2.4,20.6,4.2c2.3,0.6,4.7,1.2,7,1.5c2.9,0.3,5.8,0.3,8.7-0.2c1.7-0.3,3.4-0.6,5.1-1
				c1.2-0.3,2.4-0.9,3.6-1.3c0,0.1,0.1,0.1,0.1,0.2c-0.1,3.8-0.1,7.5-0.2,11.3c0,3.3-0.1,6.5-0.1,9.8c0,0.5-0.2,0.8-0.7,0.9
				c-1.9,0.5-3.7,1.1-5.6,1.5c-3.6,0.8-7.4,1-11,0.6c-2.6-0.3-5.3-1-7.8-1.7c-7.2-2-14.5-3.4-21.9-4.3c-4-0.5-8-0.5-12-0.3
				c-6.5,0.3-13,1.1-19.3,2.8c-3.7,1-7.3,2.2-10.8,3.7c-0.6,0.2-1.2,0.3-1.8,0.4c0-1.4,0-2.6,0-3.8C0.1,98.2,0.2,92.6,0.2,87
				c0-0.6,0.2-0.8,0.7-1c6-2.8,12.3-4.6,18.8-5.7c1.8-0.3,3.6-0.5,5.4-0.8c0.6-0.1,1.3-0.1,1.9-0.2c0,0,0,0,0-0.1
				c-0.6,0-1.3,0-1.9,0c-4.2,0-8.3,0-12.5,0C6.2,79.1,0.7,74,0.2,67.6c-0.1-0.8-0.1-1.6-0.1-2.4c0-13.2,0-26.5,0-39.7
				c0-6.3,4.2-11.5,10.2-12.8c1-0.2,2-0.3,3-0.3c21.5,0,42.9,0,64.4,0c6.7,0,12.2,4.8,13.1,11c0.1,0.9,0.2,1.8,0.2,2.7
				c0,13.1,0,26.3,0,39.4c0,5.1-2,9.2-6.4,11.9c-1.9,1.1-3.9,1.8-6.1,1.8c-10.5,0-21,0-31.5,0c-0.3,0-0.5,0-0.8,0
				c-0.5,0-1.1,0-1.6,0c0,0,0,0.1,0,0.1C45.1,79.4,45.7,79.5,46.2,79.5z M45.5,54.2c6.2,0,12.5,0,18.7,0c2.5,0,3.9-1.5,3.9-3.9
				c0-3,0-6,0-9c0-2.4-1.5-3.9-3.9-3.9c-12.5,0-25,0-37.5,0c-2.4,0-3.9,1.5-3.9,3.9c0,3,0,6,0,9.1c0,2.5,1.4,3.9,3.9,3.9
				C33,54.2,39.2,54.2,45.5,54.2z"/>
			<path class="st1" d="M599.3,79.2c-7.6,0-15.1,0-22.8,0c0-0.3,0-0.6,0-0.9c0-12.3,0-24.5,0-36.8c0-2.7-1.4-4.1-4.1-4.1
				c-9.4,0-18.8,0-28.2,0c-0.3,0-0.6,0-0.9,0c0,13.9,0,27.8,0,41.7c-7.6,0-15.1,0-22.7,0c0-22.2,0-44.4,0-66.7c0.5,0,1,0,1.5,0
				c39.6,0,79.1,0,118.7,0c2.4,0,4.8,0.1,7,1.2c4.7,2.3,7.2,6.2,7.5,11.4c0,0.3,0,0.6,0,0.9c0,17.5,0,35,0,52.5c0,0.2,0,0.5,0,0.8
				c-7.6,0-15.1,0-22.7,0c0-0.3,0-0.6,0-0.9c0-9.6,0-19.2,0-28.8c0-2.8,0-5.6,0-8.3c0-2.2-1.6-3.7-3.7-3.7c-9.6,0-19.1,0-28.7,0
				c-0.3,0-0.5,0-0.8,0C599.3,51.3,599.3,65.2,599.3,79.2z"/>
			<path class="st1" d="M252.8,70.6c-1.5,4.8-6.2,8.5-11.2,8.7c-0.4,0-0.7,0-1.1,0c-14.2,0-28.5-0.1-42.7,0
				c-7.4,0.1-13.3-6-13.2-13.3c0.1-13.5,0-27,0-40.4c0-5.1,2.3-9,6.6-11.5c2-1.2,4.1-1.6,6.4-1.6c21,0,41.9,0,62.9,0
				c4.8,0,9.6,0,14.4,0c0.3,0,0.5,0,0.8,0c0,22.2,0,44.4,0,66.7c-7.6,0-15.1,0-22.6,0c0-2.8,0-5.7,0-8.6c0-0.2,0-0.3,0-0.5
				c0,0-0.1,0-0.1,0C252.9,70.2,252.8,70.4,252.8,70.6z M252.9,37.5c-0.3,0-0.5,0-0.7,0c-13.8,0-27.5,0-41.3,0
				c-2.1,0-3.6,1.5-3.6,3.6c0,1.6,0,3.2,0,4.8c0,1.7-0.1,3.4,0,5.1c0.1,2,1.6,3.3,3.7,3.3c12.7,0,25.4,0,38.2,0
				c2.2,0,3.7-1.5,3.7-3.8c0-3.3,0-6.5,0-9.8C252.9,39.7,252.9,38.6,252.9,37.5z"/>
			<path class="st1" d="M432.8,12.5c7.6,0,15.1,0,22.7,0c0,0.3,0,0.7,0,1c0,12.2,0.1,24.5,0,36.7c0,2.6,1.9,4.1,4,4.1
				c9.5-0.1,18.9,0,28.4,0c2.6,0,4-1.4,4-4c0-12.3,0-24.5,0-36.8c0-0.3,0-0.6,0-0.9c7.6,0,15.1,0,22.7,0c0,0.3,0,0.5,0,0.8
				c0,17.6,0,35.2,0,52.8c0,6.5-4.5,11.8-10.9,12.9c-0.7,0.1-1.5,0.2-2.3,0.2c-18.5,0-37,0-55.5,0c-7.4,0-13.1-5.7-13.1-13.1
				c0-11.4,0-22.8,0-34.2c0-5.4,0-10.9-0.1-16.3C432.8,14.6,432.8,13.6,432.8,12.5z"/>
			<path class="st1" d="M96.9,12.5c1.1,0,2.1,0,3.2,0c6.1,0,12.3,0,18.4,0c0.3,0,0.6,0,1,0c0,0.4,0,0.7,0,1c0,12.2,0,24.5,0,36.7
				c0,2.7,1.4,4.1,4.1,4.1c9.5,0,18.9,0,28.4,0c2.2,0,4-1.6,4-4c-0.1-12.3,0-24.6,0-36.8c0-0.3,0-0.5,0-0.9c7.6,0,15.1,0,22.7,0
				c0,0.2,0,0.5,0,0.8c0,17.7,0,35.4,0,53.1c0,6.7-5.3,12.3-11.9,12.7c-0.6,0-1.3,0.1-1.9,0.1c-18.3,0-36.5,0-54.8,0
				c-6.5,0-11.7-4.3-12.9-10.7c-0.1-0.8-0.2-1.6-0.2-2.3c0-17.7,0-35.3,0-53c0-0.2,0-0.4,0-0.6C96.8,12.6,96.8,12.5,96.9,12.5z"/>
			<path class="st1" d="M361.7,79.1c-7.6,0-15.1,0-22.7,0c0-0.3,0-0.5,0-0.8c0-12.3,0-24.7,0-37c0-2.5-1.4-4-4-4
				c-9.9,0-19.9,0-29.8,0c-0.3,0-0.6,0-0.9,0c0,13.9,0,27.8,0,41.7c-7.6,0-15.1,0-22.7,0c0-22.2,0-44.4,0-66.7c0.3,0,0.7,0,1,0
				c21.6,0,43.2,0,64.8,0c2.2,0,4.4,0.1,6.5,1c4.7,2,7.9,6.7,7.9,11.8c0,17.7,0,35.4,0,53.1C361.7,78.6,361.7,78.8,361.7,79.1z"/>
			<path class="st1" d="M427.5,54.2c0,8.4,0,16.6,0,25c-0.3,0-0.6,0-0.8,0c-10.8,0-21.6,0-32.3,0c-6.6,0-12.3-5.4-12.7-12
				c0-0.8-0.1-1.5-0.1-2.3c0-8.9,0-17.7,0-26.6c0-0.3,0-0.6,0-1c-5.3,0-10.6,0-15.9,0c0-8.3,0-16.6,0-25c5.3,0,10.5,0,15.9,0
				c0-4.2,0-8.3,0-12.5c7.6,0,15.1,0,22.7,0c0,4.1,0,8.3,0,12.5c7.8,0,15.4,0,23.2,0c0,8.4,0,16.7,0,25.1c-7.7,0-15.4,0-23.1,0
				c0,0.3,0,0.6,0,0.8c0,4,0,8,0,12c0,2.5,1.4,3.9,3.9,3.9c6.1,0,12.2,0,18.3,0C426.9,54.2,427.2,54.2,427.5,54.2z"/>
			<path class="st2" d="M25.1,79.3c0.6,0,1.3,0,1.9,0c0,0,0,0,0,0.1c-0.6,0.1-1.3,0.1-1.9,0.2C25.1,79.4,25.1,79.3,25.1,79.3z"/>
			<path class="st3" d="M46.2,79.5c-0.5-0.1-1.1-0.1-1.6-0.2c0,0,0-0.1,0-0.1c0.5,0,1.1,0,1.6,0C46.2,79.3,46.2,79.4,46.2,79.5z"/>
			<path class="st4" d="M252.8,70.6c0-0.2,0.1-0.3,0.1-0.5c0,0,0.1,0,0.1,0c0,0.2,0,0.3,0,0.5C253,70.6,252.9,70.6,252.8,70.6z"/>
			<path class="st5" d="M96.9,12.5c0,0-0.1,0.1-0.1,0.1C96.8,12.6,96.8,12.5,96.9,12.5z"/>
			<path class="st6" d="M91.2,82.9c0-0.1-0.1-0.1-0.1-0.2C91.2,82.8,91.2,82.9,91.2,82.9z"/>
		</g>
	</g>
</g>
</svg>
